<?xml version="1.0" encoding="UTF-8"?>
<svg id="Layer_1" xmlns="http://www.w3.org/2000/svg" version="1.1" viewBox="0 0 768 1366">
  <!-- Generator: Adobe Illustrator 29.2.1, SVG Export Plug-In . SVG Version: 2.1.0 Build 116)  -->
  <defs>
    <style>
      .st0 {
        fill: none;
        stroke: #000;
        stroke-miterlimit: 10;
        stroke-width: 70px;
      }
    </style>
  </defs>
  <path class="st0" d="M329.14.92v54.86c0,30.3,24.56,54.86,54.86,54.86h219.43c30.3,0,54.86,24.56,54.86,54.86h0c0,30.3-24.56,54.86-54.86,54.86h-109.71c-30.3,0-54.86,24.56-54.86,54.86h0c0,30.3,24.56,54.86,54.86,54.86h109.71c30.3,0,54.86,24.56,54.86,54.86h0c0,30.3-24.56,54.86-54.86,54.86h-219.43c-30.3,0-54.86-24.56-54.86-54.86v-109.71c0-30.3-24.56-54.86-54.86-54.86h0c-30.3,0-54.86,24.56-54.86,54.86v219.43c0,30.3,24.56,54.86,54.86,54.86h329.14c30.3,0,54.86,24.56,54.86,54.86h0c0,30.3-24.56,54.86-54.86,54.86h-109.71c-30.3,0-54.86,24.56-54.86,54.86h0c0,30.3,24.56,54.86,54.86,54.86h0c30.3,0,54.86,24.56,54.86,54.86h0c0,30.3-24.56,54.86-54.86,54.86h-109.71c-30.3,0-54.86-24.56-54.86-54.86v-109.71c0-30.3-24.56-54.86-54.86-54.86h-109.71c-30.3,0-54.86,24.56-54.86,54.86h0c0,30.3,24.56,54.86,54.86,54.86h0c30.3,0,54.86,24.56,54.86,54.86v109.71c0,30.3,24.56,54.86,54.86,54.86h109.71c30.3,0,54.86,24.56,54.86,54.86h0c0,30.3,24.56,54.86,54.86,54.86h109.71c30.3,0,54.86,24.56,54.86,54.86h0c0,30.3-24.56,54.86-54.86,54.86h-219.43c-30.3,0-54.86,24.56-54.86,54.86v103.37"/>
</svg>